<?xml version="1.0" encoding="UTF-8"?>
<svg xmlns="http://www.w3.org/2000/svg" xmlns:xlink="http://www.w3.org/1999/xlink" width="16px" height="16px" viewBox="0 0 16 16" version="1.1">
<g id="surface1">
<path style=" stroke:none;fill-rule:evenodd;fill:rgb(0.392157%,0.392157%,0.392157%);fill-opacity:1;" d="M 1.601562 0 L 14.398438 0 C 15.285156 0 16 0.714844 16 1.601562 L 16 14.398438 C 16 15.285156 15.285156 16 14.398438 16 L 1.601562 16 C 0.714844 16 0 15.285156 0 14.398438 L 0 1.601562 C 0 0.714844 0.714844 0 1.601562 0 Z M 1.601562 0 "/>
<path style=" stroke:none;fill-rule:evenodd;fill:rgb(93.333333%,11.372549%,31.764706%);fill-opacity:1;" d="M 10.046875 14.71875 C 10.535156 14.71875 10.929688 14.328125 10.929688 13.84375 C 10.929688 13.363281 10.535156 12.972656 10.046875 12.972656 L 9.914062 12.972656 C 10.402344 12.972656 10.796875 13.363281 10.796875 13.84375 C 10.796875 14.328125 10.402344 14.71875 9.914062 14.71875 Z M 10.046875 14.71875 "/>
<path style=" stroke:none;fill-rule:evenodd;fill:rgb(40%,78.431373%,81.176471%);fill-opacity:1;" d="M 9.902344 12.972656 L 9.769531 12.972656 C 9.28125 12.972656 8.886719 13.363281 8.886719 13.84375 C 8.886719 14.328125 9.28125 14.71875 9.769531 14.71875 L 9.902344 14.71875 C 9.414062 14.71875 9.019531 14.328125 9.019531 13.84375 C 9.019531 13.363281 9.414062 12.972656 9.902344 12.972656 Z M 9.902344 12.972656 "/>
<path style=" stroke:none;fill-rule:evenodd;fill:rgb(0.392157%,0.392157%,0.392157%);fill-opacity:1;" d="M 10.335938 13.84375 C 10.335938 13.609375 10.144531 13.421875 9.90625 13.421875 C 9.671875 13.421875 9.480469 13.609375 9.480469 13.84375 C 9.480469 14.082031 9.671875 14.269531 9.90625 14.269531 C 10.144531 14.269531 10.335938 14.082031 10.335938 13.84375 Z M 10.335938 13.84375 "/>
<path style=" stroke:none;fill-rule:evenodd;fill:rgb(100%,100%,100%);fill-opacity:1;" d="M 3.199219 12.574219 L 3.199219 13.019531 L 3.71875 13.019531 L 3.71875 14.707031 L 4.238281 14.707031 L 4.238281 13.03125 L 4.660156 13.03125 L 4.804688 12.574219 Z M 7.449219 12.574219 L 7.449219 13.019531 L 7.96875 13.019531 L 7.96875 14.707031 L 8.488281 14.707031 L 8.488281 13.03125 L 8.910156 13.03125 L 9.054688 12.574219 Z M 4.902344 12.828125 C 4.902344 12.6875 5.015625 12.574219 5.15625 12.574219 C 5.296875 12.574219 5.410156 12.6875 5.410156 12.828125 C 5.410156 12.964844 5.296875 13.078125 5.15625 13.078125 C 5.015625 13.078125 4.902344 12.964844 4.902344 12.828125 Z M 4.902344 13.257812 L 5.410156 13.257812 L 5.410156 14.707031 L 4.902344 14.707031 Z M 5.628906 12.574219 L 5.628906 14.707031 L 6.132812 14.707031 L 6.132812 14.15625 L 6.292969 14.011719 L 6.785156 14.71875 L 7.328125 14.71875 L 6.617188 13.691406 L 7.257812 13.066406 L 6.640625 13.066406 L 6.132812 13.570312 L 6.132812 12.574219 Z M 11.097656 12.574219 L 11.097656 14.707031 L 11.605469 14.707031 L 11.605469 14.15625 L 11.761719 14.011719 L 12.257812 14.71875 L 12.800781 14.71875 L 12.085938 13.691406 L 12.726562 13.066406 L 12.113281 13.066406 L 11.605469 13.570312 L 11.605469 12.574219 Z M 11.097656 12.574219 "/>
<path style=" stroke:none;fill-rule:evenodd;fill:rgb(93.333333%,11.372549%,32.156863%);fill-opacity:1;" d="M 10.316406 5.195312 C 11.015625 5.695312 11.875 5.992188 12.800781 5.992188 L 12.800781 4.207031 C 12.625 4.207031 12.449219 4.191406 12.277344 4.152344 L 12.277344 5.558594 C 11.351562 5.558594 10.492188 5.261719 9.792969 4.761719 L 9.792969 8.398438 C 9.792969 10.21875 8.316406 11.695312 6.496094 11.695312 C 5.816406 11.695312 5.1875 11.488281 4.660156 11.136719 C 5.261719 11.75 6.09375 12.128906 7.019531 12.128906 C 8.839844 12.128906 10.316406 10.652344 10.316406 8.832031 Z M 10.957031 3.398438 C 10.601562 3.007812 10.367188 2.5 10.316406 1.941406 L 10.316406 1.714844 L 9.820312 1.714844 C 9.945312 2.421875 10.371094 3.03125 10.957031 3.398438 Z M 5.8125 9.742188 C 5.613281 9.476562 5.503906 9.15625 5.503906 8.828125 C 5.503906 7.996094 6.179688 7.320312 7.011719 7.320312 C 7.167969 7.320312 7.324219 7.34375 7.46875 7.390625 L 7.46875 5.570312 C 7.296875 5.546875 7.125 5.535156 6.949219 5.539062 L 6.949219 6.957031 C 6.800781 6.910156 6.644531 6.886719 6.492188 6.886719 C 5.660156 6.886719 4.984375 7.5625 4.984375 8.394531 C 4.984375 8.984375 5.320312 9.492188 5.8125 9.742188 Z M 5.8125 9.742188 "/>
<path style=" stroke:none;fill-rule:evenodd;fill:rgb(100%,100%,100%);fill-opacity:1;" d="M 9.792969 4.761719 C 10.492188 5.261719 11.351562 5.558594 12.277344 5.558594 L 12.277344 4.152344 C 11.761719 4.042969 11.304688 3.773438 10.957031 3.398438 C 10.371094 3.03125 9.945312 2.421875 9.820312 1.714844 L 8.519531 1.714844 L 8.519531 8.832031 C 8.519531 9.664062 7.84375 10.335938 7.011719 10.335938 C 6.523438 10.335938 6.089844 10.101562 5.8125 9.742188 C 5.320312 9.492188 4.984375 8.984375 4.984375 8.394531 C 4.984375 7.5625 5.660156 6.886719 6.492188 6.886719 C 6.652344 6.886719 6.804688 6.910156 6.949219 6.957031 L 6.949219 5.539062 C 5.160156 5.578125 3.722656 7.035156 3.722656 8.832031 C 3.722656 9.730469 4.078125 10.542969 4.660156 11.136719 C 5.1875 11.488281 5.816406 11.695312 6.496094 11.695312 C 8.316406 11.695312 9.792969 10.21875 9.792969 8.398438 Z M 9.792969 4.761719 "/>
<path style=" stroke:none;fill-rule:evenodd;fill:rgb(41.176471%,78.823529%,81.568627%);fill-opacity:1;" d="M 12.277344 4.152344 L 12.277344 3.773438 C 11.8125 3.773438 11.355469 3.644531 10.957031 3.398438 C 11.308594 3.78125 11.769531 4.046875 12.277344 4.152344 Z M 9.820312 1.714844 C 9.808594 1.644531 9.800781 1.578125 9.792969 1.507812 L 9.792969 1.28125 L 8 1.28125 L 8 8.398438 C 7.996094 9.230469 7.320312 9.902344 6.492188 9.902344 C 6.246094 9.902344 6.015625 9.84375 5.8125 9.742188 C 6.089844 10.101562 6.523438 10.335938 7.011719 10.335938 C 7.84375 10.335938 8.519531 9.664062 8.519531 8.832031 L 8.519531 1.714844 Z M 6.949219 5.539062 L 6.949219 5.136719 C 6.800781 5.113281 6.648438 5.105469 6.496094 5.105469 C 4.675781 5.105469 3.199219 6.578125 3.199219 8.398438 C 3.199219 9.539062 3.78125 10.546875 4.660156 11.136719 C 4.082031 10.542969 3.722656 9.730469 3.722656 8.832031 C 3.722656 7.035156 5.160156 5.578125 6.949219 5.539062 Z M 6.949219 5.539062 "/>
<path style=" stroke:none;fill-rule:evenodd;fill:rgb(100%,100%,100%);fill-opacity:1;" d="M 9.914062 14.71875 C 10.402344 14.71875 10.796875 14.328125 10.796875 13.84375 C 10.796875 13.363281 10.402344 12.972656 9.914062 12.972656 L 9.902344 12.972656 C 9.414062 12.972656 9.019531 13.363281 9.019531 13.84375 C 9.019531 14.328125 9.414062 14.71875 9.902344 14.71875 Z M 9.480469 13.84375 C 9.480469 13.609375 9.671875 13.421875 9.90625 13.421875 C 10.144531 13.421875 10.335938 13.609375 10.335938 13.84375 C 10.335938 14.082031 10.144531 14.269531 9.90625 14.269531 C 9.671875 14.269531 9.480469 14.082031 9.480469 13.84375 Z M 9.480469 13.84375 "/>
</g>
</svg>
