<?xml version="1.0" encoding="UTF-8"?>
<svg xmlns="http://www.w3.org/2000/svg" xmlns:xlink="http://www.w3.org/1999/xlink" width="128px" height="128px" viewBox="0 0 128 128" version="1.1">
<g id="surface1">
<path style=" stroke:none;fill-rule:evenodd;fill:rgb(0.392157%,0.392157%,0.392157%);fill-opacity:1;" d="M 12.800781 0 L 115.199219 0 C 122.269531 0 128 5.730469 128 12.800781 L 128 115.199219 C 128 122.269531 122.269531 128 115.199219 128 L 12.800781 128 C 5.730469 128 0 122.269531 0 115.199219 L 0 12.800781 C 0 5.730469 5.730469 0 12.800781 0 Z M 12.800781 0 "/>
<path style=" stroke:none;fill-rule:evenodd;fill:rgb(93.333333%,11.372549%,31.764706%);fill-opacity:1;" d="M 80.375 117.761719 C 84.269531 117.761719 87.425781 114.628906 87.425781 110.765625 C 87.425781 106.902344 84.269531 103.769531 80.375 103.769531 L 79.3125 103.769531 C 83.207031 103.769531 86.363281 106.902344 86.363281 110.765625 C 86.363281 114.628906 83.207031 117.761719 79.3125 117.761719 Z M 80.375 117.761719 "/>
<path style=" stroke:none;fill-rule:evenodd;fill:rgb(40%,78.431373%,81.176471%);fill-opacity:1;" d="M 79.214844 103.769531 L 78.152344 103.769531 C 74.257812 103.769531 71.101562 106.902344 71.101562 110.765625 C 71.101562 114.628906 74.257812 117.761719 78.152344 117.761719 L 79.214844 117.761719 C 75.320312 117.761719 72.164062 114.628906 72.164062 110.765625 C 72.164062 106.902344 75.320312 103.769531 79.214844 103.769531 Z M 79.214844 103.769531 "/>
<path style=" stroke:none;fill-rule:evenodd;fill:rgb(0.392157%,0.392157%,0.392157%);fill-opacity:1;" d="M 82.691406 110.765625 C 82.691406 108.886719 81.15625 107.363281 79.261719 107.363281 C 77.367188 107.363281 75.832031 108.886719 75.832031 110.765625 C 75.832031 112.644531 77.367188 114.167969 79.261719 114.167969 C 81.15625 114.167969 82.691406 112.644531 82.691406 110.765625 Z M 82.691406 110.765625 "/>
<path style=" stroke:none;fill-rule:evenodd;fill:rgb(100%,100%,100%);fill-opacity:1;" d="M 25.601562 100.609375 L 25.601562 104.152344 L 29.753906 104.152344 L 29.753906 117.664062 L 33.910156 117.664062 L 33.910156 104.25 L 37.289062 104.25 L 38.449219 100.609375 Z M 59.605469 100.609375 L 59.605469 104.152344 L 63.757812 104.152344 L 63.757812 117.664062 L 67.914062 117.664062 L 67.914062 104.25 L 71.292969 104.25 L 72.453125 100.609375 Z M 39.222656 102.621094 C 39.222656 101.507812 40.128906 100.609375 41.25 100.609375 C 42.371094 100.609375 43.277344 101.507812 43.277344 102.621094 C 43.277344 103.730469 42.371094 104.632812 41.25 104.632812 C 40.128906 104.632812 39.222656 103.730469 39.222656 102.621094 Z M 39.222656 106.070312 L 43.277344 106.070312 L 43.277344 117.664062 L 39.222656 117.664062 Z M 45.015625 100.609375 L 45.015625 117.664062 L 49.074219 117.664062 L 49.074219 113.257812 L 50.332031 112.105469 L 54.289062 117.761719 L 58.636719 117.761719 L 52.9375 109.519531 L 58.058594 104.535156 L 53.132812 104.535156 L 49.074219 108.558594 L 49.074219 100.609375 Z M 88.777344 100.609375 L 88.777344 117.664062 L 92.835938 117.664062 L 92.835938 113.257812 L 94.089844 112.105469 L 98.050781 117.761719 L 102.398438 117.761719 L 96.699219 109.519531 L 101.820312 104.535156 L 96.894531 104.535156 L 92.835938 108.558594 L 92.835938 100.609375 Z M 88.777344 100.609375 "/>
<path style=" stroke:none;fill-rule:evenodd;fill:rgb(93.333333%,11.372549%,32.156863%);fill-opacity:1;" d="M 82.515625 41.566406 C 88.121094 45.570312 94.984375 47.925781 102.398438 47.925781 L 102.398438 33.667969 C 100.996094 33.667969 99.597656 33.519531 98.222656 33.230469 L 98.222656 44.453125 C 90.8125 44.453125 83.945312 42.097656 78.34375 38.09375 L 78.34375 67.195312 C 78.34375 81.753906 66.535156 93.550781 51.972656 93.550781 C 46.539062 93.550781 41.488281 91.910156 37.289062 89.09375 C 42.078125 93.988281 48.757812 97.023438 56.144531 97.023438 C 70.710938 97.023438 82.519531 85.222656 82.519531 70.667969 L 82.519531 41.566406 Z M 87.667969 27.179688 C 84.804688 24.054688 82.925781 20.011719 82.515625 15.546875 L 82.515625 13.710938 L 78.5625 13.710938 C 79.554688 19.390625 82.953125 24.242188 87.667969 27.179688 Z M 46.503906 77.925781 C 44.902344 75.828125 44.039062 73.261719 44.042969 70.625 C 44.042969 63.964844 49.441406 58.570312 56.105469 58.570312 C 57.347656 58.566406 58.582031 58.757812 59.765625 59.132812 L 59.765625 44.554688 C 58.382812 44.367188 56.984375 44.285156 55.589844 44.316406 L 55.589844 55.660156 C 54.40625 55.285156 53.171875 55.097656 51.929688 55.097656 C 45.265625 55.097656 39.867188 60.496094 39.867188 67.152344 C 39.867188 71.863281 42.566406 75.9375 46.503906 77.925781 Z M 46.503906 77.925781 "/>
<path style=" stroke:none;fill-rule:evenodd;fill:rgb(100%,100%,100%);fill-opacity:1;" d="M 78.34375 38.09375 C 83.945312 42.097656 90.8125 44.453125 98.222656 44.453125 L 98.222656 33.230469 C 94.085938 32.347656 90.421875 30.1875 87.667969 27.179688 C 82.953125 24.242188 79.554688 19.390625 78.5625 13.710938 L 68.167969 13.710938 L 68.167969 70.664062 C 68.144531 77.304688 62.753906 82.679688 56.105469 82.679688 C 52.1875 82.679688 48.707031 80.816406 46.5 77.925781 C 42.566406 75.9375 39.867188 71.863281 39.867188 67.152344 C 39.867188 60.496094 45.265625 55.097656 51.929688 55.097656 C 53.207031 55.097656 54.4375 55.296875 55.589844 55.660156 L 55.589844 44.316406 C 41.28125 44.609375 29.773438 56.296875 29.773438 70.667969 C 29.773438 77.839844 32.640625 84.34375 37.289062 89.09375 C 41.488281 91.910156 46.539062 93.550781 51.972656 93.550781 C 66.535156 93.550781 78.34375 81.753906 78.34375 67.195312 Z M 78.34375 38.09375 "/>
<path style=" stroke:none;fill-rule:evenodd;fill:rgb(41.176471%,78.823529%,81.568627%);fill-opacity:1;" d="M 98.222656 33.230469 L 98.222656 30.195312 C 94.492188 30.199219 90.835938 29.15625 87.667969 27.179688 C 90.472656 30.246094 94.160156 32.363281 98.222656 33.230469 Z M 78.5625 13.710938 C 78.464844 13.167969 78.394531 12.621094 78.34375 12.074219 L 78.34375 10.238281 L 63.992188 10.238281 L 63.992188 67.195312 C 63.96875 73.832031 58.578125 79.210938 51.929688 79.210938 C 49.976562 79.210938 48.132812 78.746094 46.5 77.925781 C 48.707031 80.816406 52.1875 82.679688 56.105469 82.679688 C 62.753906 82.679688 68.144531 77.304688 68.167969 70.664062 L 68.167969 13.710938 Z M 55.589844 44.316406 L 55.589844 41.082031 C 54.390625 40.921875 53.183594 40.839844 51.972656 40.839844 C 37.40625 40.839844 25.601562 52.640625 25.601562 67.195312 C 25.601562 76.320312 30.242188 84.363281 37.292969 89.09375 C 32.640625 84.34375 29.773438 77.839844 29.773438 70.664062 C 29.773438 56.296875 41.28125 44.609375 55.589844 44.316406 Z M 55.589844 44.316406 "/>
<path style=" stroke:none;fill-rule:evenodd;fill:rgb(100%,100%,100%);fill-opacity:1;" d="M 79.3125 117.761719 C 83.207031 117.761719 86.363281 114.628906 86.363281 110.765625 C 86.363281 106.902344 83.207031 103.769531 79.3125 103.769531 L 79.214844 103.769531 C 75.320312 103.769531 72.164062 106.902344 72.164062 110.765625 C 72.164062 114.628906 75.320312 117.761719 79.214844 117.761719 Z M 75.832031 110.765625 C 75.832031 108.886719 77.371094 107.363281 79.265625 107.363281 C 81.15625 107.363281 82.691406 108.886719 82.691406 110.765625 C 82.691406 112.644531 81.15625 114.167969 79.265625 114.167969 C 77.371094 114.167969 75.832031 112.644531 75.832031 110.765625 Z M 75.832031 110.765625 "/>
</g>
</svg>
