<?xml version="1.0" encoding="UTF-8"?>
<svg xmlns="http://www.w3.org/2000/svg" xmlns:xlink="http://www.w3.org/1999/xlink" width="48px" height="48px" viewBox="0 0 48 47" version="1.1">
<g id="surface1">
<path style=" stroke:none;fill-rule:evenodd;fill:rgb(0.392157%,0.392157%,0.392157%);fill-opacity:1;" d="M 4.800781 0 L 43.199219 0 C 45.851562 0 48 2.105469 48 4.699219 L 48 42.300781 C 48 44.894531 45.851562 47 43.199219 47 L 4.800781 47 C 2.148438 47 0 44.894531 0 42.300781 L 0 4.699219 C 0 2.105469 2.148438 0 4.800781 0 Z M 4.800781 0 "/>
<path style=" stroke:none;fill-rule:evenodd;fill:rgb(93.333333%,11.372549%,31.764706%);fill-opacity:1;" d="M 30.140625 43.238281 C 31.601562 43.238281 32.785156 42.089844 32.785156 40.671875 C 32.785156 39.253906 31.601562 38.101562 30.140625 38.101562 L 29.742188 38.101562 C 31.203125 38.101562 32.386719 39.253906 32.386719 40.671875 C 32.386719 42.089844 31.203125 43.238281 29.742188 43.238281 Z M 30.140625 43.238281 "/>
<path style=" stroke:none;fill-rule:evenodd;fill:rgb(40%,78.431373%,81.176471%);fill-opacity:1;" d="M 29.707031 38.101562 L 29.308594 38.101562 C 27.847656 38.101562 26.664062 39.253906 26.664062 40.671875 C 26.664062 42.089844 27.847656 43.238281 29.308594 43.238281 L 29.707031 43.238281 C 28.246094 43.238281 27.0625 42.089844 27.0625 40.671875 C 27.0625 39.253906 28.246094 38.101562 29.707031 38.101562 Z M 29.707031 38.101562 "/>
<path style=" stroke:none;fill-rule:evenodd;fill:rgb(0.392157%,0.392157%,0.392157%);fill-opacity:1;" d="M 31.011719 40.671875 C 31.011719 39.980469 30.433594 39.421875 29.722656 39.421875 C 29.011719 39.421875 28.4375 39.980469 28.4375 40.671875 C 28.4375 41.359375 29.011719 41.921875 29.722656 41.921875 C 30.433594 41.921875 31.011719 41.359375 31.011719 40.671875 Z M 31.011719 40.671875 "/>
<path style=" stroke:none;fill-rule:evenodd;fill:rgb(100%,100%,100%);fill-opacity:1;" d="M 9.601562 36.941406 L 9.601562 38.242188 L 11.15625 38.242188 L 11.15625 43.203125 L 12.714844 43.203125 L 12.714844 38.277344 L 13.984375 38.277344 L 14.417969 36.941406 Z M 22.351562 36.941406 L 22.351562 38.242188 L 23.910156 38.242188 L 23.910156 43.203125 L 25.46875 43.203125 L 25.46875 38.277344 L 26.734375 38.277344 L 27.167969 36.941406 Z M 14.707031 37.679688 C 14.707031 37.273438 15.046875 36.941406 15.46875 36.941406 C 15.890625 36.941406 16.230469 37.273438 16.230469 37.679688 C 16.230469 38.089844 15.890625 38.417969 15.46875 38.417969 C 15.046875 38.417969 14.707031 38.089844 14.707031 37.679688 Z M 14.707031 38.949219 L 16.230469 38.949219 L 16.230469 43.203125 L 14.707031 43.203125 Z M 16.882812 36.941406 L 16.882812 43.203125 L 18.402344 43.203125 L 18.402344 41.585938 L 18.875 41.164062 L 20.359375 43.238281 L 21.988281 43.238281 L 19.851562 40.214844 L 21.773438 38.382812 L 19.925781 38.382812 L 18.402344 39.863281 L 18.402344 36.941406 Z M 33.292969 36.941406 L 33.292969 43.203125 L 34.8125 43.203125 L 34.8125 41.585938 L 35.285156 41.164062 L 36.769531 43.238281 L 38.398438 43.238281 L 36.261719 40.214844 L 38.183594 38.382812 L 36.335938 38.382812 L 34.8125 39.863281 L 34.8125 36.941406 Z M 33.292969 36.941406 "/>
<path style=" stroke:none;fill-rule:evenodd;fill:rgb(93.333333%,11.372549%,32.156863%);fill-opacity:1;" d="M 30.945312 15.261719 C 33.046875 16.734375 35.621094 17.597656 38.398438 17.597656 L 38.398438 12.363281 C 37.875 12.363281 37.347656 12.308594 36.835938 12.203125 L 36.835938 16.324219 C 34.054688 16.324219 31.480469 15.457031 29.378906 13.988281 L 29.378906 24.671875 C 29.378906 30.019531 24.949219 34.351562 19.488281 34.351562 C 17.453125 34.351562 15.558594 33.75 13.984375 32.714844 C 15.78125 34.511719 18.285156 35.625 21.054688 35.625 C 26.515625 35.625 30.945312 31.292969 30.945312 25.949219 Z M 32.875 9.980469 C 31.800781 8.832031 31.097656 7.347656 30.945312 5.707031 L 30.945312 5.035156 L 29.460938 5.035156 C 29.832031 7.121094 31.109375 8.902344 32.875 9.980469 Z M 17.4375 28.613281 C 16.839844 27.84375 16.515625 26.902344 16.515625 25.933594 C 16.515625 23.488281 18.539062 21.503906 21.039062 21.503906 C 21.503906 21.503906 21.96875 21.574219 22.410156 21.714844 L 22.410156 16.359375 C 21.894531 16.289062 21.371094 16.261719 20.847656 16.273438 L 20.847656 20.4375 C 20.402344 20.300781 19.9375 20.230469 19.472656 20.230469 C 16.976562 20.230469 14.949219 22.214844 14.949219 24.65625 C 14.949219 26.386719 15.960938 27.882812 17.4375 28.613281 Z M 17.4375 28.613281 "/>
<path style=" stroke:none;fill-rule:evenodd;fill:rgb(100%,100%,100%);fill-opacity:1;" d="M 29.378906 13.988281 C 31.480469 15.457031 34.054688 16.324219 36.835938 16.324219 L 36.835938 12.203125 C 35.28125 11.878906 33.910156 11.085938 32.875 9.980469 C 31.109375 8.902344 29.832031 7.121094 29.460938 5.035156 L 25.5625 5.035156 L 25.5625 25.949219 C 25.554688 28.386719 23.53125 30.359375 21.039062 30.359375 C 19.570312 30.359375 18.265625 29.675781 17.4375 28.613281 C 15.960938 27.882812 14.949219 26.386719 14.949219 24.65625 C 14.949219 22.214844 16.976562 20.230469 19.472656 20.230469 C 19.953125 20.230469 20.414062 20.304688 20.847656 20.4375 L 20.847656 16.273438 C 15.480469 16.378906 11.164062 20.671875 11.164062 25.949219 C 11.164062 28.582031 12.238281 30.96875 13.984375 32.714844 C 15.558594 33.75 17.453125 34.351562 19.488281 34.351562 C 24.949219 34.351562 29.378906 30.019531 29.378906 24.671875 Z M 29.378906 13.988281 "/>
<path style=" stroke:none;fill-rule:evenodd;fill:rgb(41.176471%,78.823529%,81.568627%);fill-opacity:1;" d="M 36.835938 12.203125 L 36.835938 11.085938 C 35.433594 11.089844 34.0625 10.707031 32.875 9.980469 C 33.925781 11.105469 35.308594 11.882812 36.835938 12.203125 Z M 29.460938 5.035156 C 29.425781 4.835938 29.398438 4.636719 29.378906 4.433594 L 29.378906 3.761719 L 23.996094 3.761719 L 23.996094 24.671875 C 23.988281 27.109375 21.964844 29.085938 19.472656 29.085938 C 18.742188 29.085938 18.050781 28.914062 17.4375 28.613281 C 18.265625 29.675781 19.570312 30.359375 21.039062 30.359375 C 23.53125 30.359375 25.554688 28.386719 25.5625 25.949219 L 25.5625 5.035156 Z M 20.847656 16.273438 L 20.847656 15.085938 C 20.398438 15.023438 19.945312 14.996094 19.488281 14.996094 C 14.027344 14.996094 9.601562 19.328125 9.601562 24.671875 C 9.601562 28.023438 11.339844 30.976562 13.984375 32.714844 C 12.242188 30.96875 11.164062 28.582031 11.164062 25.949219 C 11.164062 20.671875 15.480469 16.378906 20.847656 16.273438 Z M 20.847656 16.273438 "/>
<path style=" stroke:none;fill-rule:evenodd;fill:rgb(100%,100%,100%);fill-opacity:1;" d="M 29.742188 43.238281 C 31.203125 43.238281 32.386719 42.089844 32.386719 40.671875 C 32.386719 39.253906 31.203125 38.101562 29.742188 38.101562 L 29.707031 38.101562 C 28.246094 38.101562 27.0625 39.253906 27.0625 40.671875 C 27.0625 42.089844 28.246094 43.238281 29.707031 43.238281 Z M 28.4375 40.671875 C 28.4375 39.980469 29.011719 39.421875 29.722656 39.421875 C 30.433594 39.421875 31.007812 39.980469 31.007812 40.671875 C 31.007812 41.363281 30.433594 41.921875 29.722656 41.921875 C 29.011719 41.921875 28.4375 41.363281 28.4375 40.671875 Z M 28.4375 40.671875 "/>
</g>
</svg>
